<svg width="200" height="200" viewBox="0 0 100 100" fill="none" xmlns="http://www.w3.org/2000/svg">
  <defs>
    <linearGradient id="sindoor" x1="15%" y1="5%" x2="85%" y2="95%">
      <stop offset="0%" stop-color="#D94A3E"/>
      <stop offset="50%" stop-color="#C0392B"/>
      <stop offset="100%" stop-color="#A42E24"/>
    </linearGradient>
    <linearGradient id="gold" x1="0%" y1="0%" x2="100%" y2="100%">
      <stop offset="0%" stop-color="#F0DDA4"/>
      <stop offset="50%" stop-color="#D4A843"/>
      <stop offset="100%" stop-color="#B8923A"/>
    </linearGradient>
  </defs>
  <circle cx="50" cy="50" r="46" fill="url(#sindoor)"/>
  <circle cx="50" cy="50" r="42" fill="none" stroke="rgba(255,255,255,0.08)" stroke-width="1.5"/>
  <path d="M 19 36 C 16 34, 14 37, 15 40 C 16 42, 19 42, 20 40 L 34 72 C 35 74, 36 74, 37 72 L 47 40 C 48 38, 49 38, 50 40 L 60 72 C 61 74, 62 74, 63 72 L 76 28 C 77 24, 80 22, 82 24 C 84 26, 83 30, 80 31 C 77 32, 75 30, 76 28" fill="none" stroke="#FBF8F1" stroke-width="4.5" stroke-linecap="round" stroke-linejoin="round"/>
  <circle cx="48" cy="30" r="3" fill="url(#gold)"/>
</svg>
